<svg xmlns="http://www.w3.org/2000/svg" width="32" height="32" viewBox="0 0 32 32"><path fill="#121313" fill-rule="evenodd" d="M.291 16.749l14.944 14.944c.202.202.467.301.731.299.008 0 .014.004.022.004h15a1 1 0 0 0 1-1c0-.008-.004-.014-.004-.022a1.019 1.019 0 0 0-.299-.731L17.438 15.997 31.715 1.721a1.027 1.027 0 0 0 0-1.452 1.009 1.009 0 0 0-.87-.273H16.134a1.009 1.009 0 0 0-.87.273L.292 15.24a1.016 1.016 0 0 0-.295.755c-.008.272.086.546.294.754zM16.44 1.996h12.096L15.292 15.24a1.016 1.016 0 0 0-.295.755c-.008.272.087.546.295.754l13.247 13.247H16.437L2.438 15.997 16.44 1.996z" clip-rule="evenodd"/></svg>