<svg xmlns="http://www.w3.org/2000/svg" width="256" height="256" viewBox="0 0 256 256"><path fill="#231f20" d="M0 0h256v256H0z"/><path fill="#fff" d="M168.4 35.6v180.9H83.67V35.6z"/><path fill="#231f20" d="M164.1 44.6v162.8H87.84V44.6z"/><rect width="130.1" height="24.33" x="61" y="113.8" fill="#fff" rx="8.4" transform="rotate(90 126.05 125.95)"/><circle cx="126" cy="126" r="35.6" fill="#fff"/><circle cx="126" cy="126" r="26.7" fill="#231f20"/><circle cx="126" cy="71.9" r="9.1" fill="#231f20"/><circle cx="126" cy="71.9" r="6.8" fill="#fff"/><circle cx="126" cy="179.7" r="9.1" fill="#231f20"/><circle cx="126" cy="179.7" r="6.8" fill="#fff"/><path fill="#fff" d="M150.5 127.4h-2.8a16.9 16.9 0 0 1-1.2 4.8 8.6 8.6 0 0 1-2.6 3.4 14.8 14.8 0 0 1-2.7 1.9 6.9 6.9 0 0 1-2.6.6 3 3 0 0 1-2.3-1 3.2 3.2 0 0 1-.9-2.3c0-1.7.9-2.8 2.8-3.3a5.8 5.8 0 0 0 4.3-4.1h-10.9a34.9 34.9 0 0 1-1.6 5.1 12.5 12.5 0 0 1-2.1 3.5 9.2 9.2 0 0 1-3.4 2.4 10.5 10.5 0 0 1-4.4.9 11.8 11.8 0 0 1-5.5-1.4 11.2 11.2 0 0 1-4.3-4.1 15.5 15.5 0 0 1-1.9-6.4h-6.5a5.7 5.7 0 0 1-2.2-.3c-.5-.2-.7-.6-.7-1.3a1.6 1.6 0 0 1 .5-1.3 3 3 0 0 1 1.8-.4h7a16.5 16.5 0 0 1 1.5-5.3 10.9 10.9 0 0 1 2.7-3.8 10.2 10.2 0 0 1 3.4-2.3 8.6 8.6 0 0 1 3.4-.7 3 3 0 0 1 2.3 1 3.3 3.3 0 0 1 1 2.4 3.4 3.4 0 0 1-.6 2 2.5 2.5 0 0 1-1.5 1.1l-3.3 1.2a7.4 7.4 0 0 0-2 1.6 6.8 6.8 0 0 0-1.5 2.8h12.1a33.8 33.8 0 0 1 2.2-5.8 9 9 0 0 1 3.4-3.8 9.5 9.5 0 0 1 5.6-1.5 9.8 9.8 0 0 1 7.3 2.8c1.9 1.9 3 4.7 3.4 8.3h2.7c1.5 0 2.2.5 2.2 1.6s-.7 1.7-2.1 1.7zm-25.6 0h-11.4a7 7 0 0 0 2.1 4.1 5.5 5.5 0 0 0 3.7 1.4 4.5 4.5 0 0 0 3.5-1.4 12 12 0 0 0 2.1-4.1zm7.7-3.3h10a9.8 9.8 0 0 0-1.7-3.4 4.3 4.3 0 0 0-3.3-1.2 3.9 3.9 0 0 0-3.1 1.1 11.2 11.2 0 0 0-1.9 3.5z"/><path fill="#231f20" d="M130.6 72.6h-.5a4.6 4.6 0 0 1-.3.9 1.3 1.3 0 0 1-.5.7l-.6.4h-.9a.6.6 0 0 1-.2-.5.7.7 0 0 1 .5-.7 1.1 1.1 0 0 0 .9-.8h-2.2a6.2 6.2 0 0 1-.3 1 1.6 1.6 0 0 1-.4.7 1.8 1.8 0 0 1-.7.5l-.9.2a2 2 0 0 1-1.1-.3 3.4 3.4 0 0 1-.9-.8 5 5 0 0 1-.4-1.3h-1.7a.2.2 0 0 1-.2-.2c0-.2.1-.3.2-.3h1.7l.3-1.1.6-.7a1.8 1.8 0 0 1 .7-.5h.6c.2 0 .4 0 .5.2a.8.8 0 0 1 .2.5.6.6 0 0 1-.1.4l-.3.2-.7.2c-.1.1-.3.2-.4.4l-.3.5h2.5a5.6 5.6 0 0 1 .4-1.2l.7-.7a1.8 1.8 0 0 1 1.1-.3 2 2 0 0 1 1.5.6 2.4 2.4 0 0 1 .7 1.6h.5c.3 0 .5.1.5.4s-.2 0-.5 0zm-5.1 0h-2.3a1.2 1.2 0 0 0 .4.8 1.1 1.1 0 0 0 .7.3.8.8 0 0 0 .7-.3 2.8 2.8 0 0 0 .5-.8zm1.5-.7h2l-.3-.7-.7-.2-.6.2a4.3 4.3 0 0 0-.4.7zm3.6 108.3h-.5l-.3 1-.5.7-.6.3-.5.2-.4-.2a.6.6 0 0 1-.2-.5.8.8 0 0 1 .5-.7 1.1 1.1 0 0 0 .9-.8h-2.2a6.2 6.2 0 0 1-.3 1 1.6 1.6 0 0 1-.4.7 1.8 1.8 0 0 1-.7.5l-.9.2a2 2 0 0 1-1.1-.3 2.3 2.3 0 0 1-.9-.8 5 5 0 0 1-.4-1.3h-1.7l-.2-.2.2-.3h1.7l.3-1 .6-.8a1.8 1.8 0 0 1 .7-.5h.6l.5.2a.8.8 0 0 1 .2.5.6.6 0 0 1-.1.4l-.3.2-.7.3a.5.5 0 0 0-.4.3l-.3.5h2.5a3.6 3.6 0 0 1 .4-1.1 1.9 1.9 0 0 1 .7-.8 1.8 1.8 0 0 1 1.1-.3 2 2 0 0 1 1.5.6 2.6 2.6 0 0 1 .7 1.6h.5c.3 0 .5.1.5.4s-.2 0-.5 0zm-5.1 0h-2.3a1 1 0 0 0 .4.8 1.1 1.1 0 0 0 .7.3.8.8 0 0 0 .7-.3 2.8 2.8 0 0 0 .5-.8zm1.5-.7h2a1.6 1.6 0 0 0-.3-.6.9.9 0 0 0-.7-.3l-.6.2a4.3 4.3 0 0 0-.4.7z"/><path fill="#fff" d="M53.2 142.1l6.6-8.8 5.8 8.8 6.2-8.8 7.2 8.8 7.5-8.8 6.2 8.8 7.8-7.9 6.2 7.9 8.8-8.8 6.1 8.8 8.8-8.8 6.6 8.8 8.8-8.8 6.5 8.8 8.8-8.8 6.2 8.8 7.1-7.2 5.9 7.2 10.1-8.8 8.4 8.8s-6.1 102.3-72.8 102.3-72.8-102.3-72.8-102.3z"/><path fill="#231f20" d="M70.4 171.2h8.4v.9h-7.5v6.3h6.2v.8h-6.2v6.5h7.9v.9h-8.8zm19-.3a8.5 8.5 0 0 1 5.4 1.7l-.6.8a7.6 7.6 0 0 0-4.8-1.6 6.8 6.8 0 0 0-6.7 7.1c0 4 2.8 7 6.6 7a7.3 7.3 0 0 0 5.3-2.5v-3h-2.8v-.8h3.7v7h-.9v-2a7.3 7.3 0 0 1-5.3 2.2 7.6 7.6 0 0 1-7.5-7.9 7.7 7.7 0 0 1 7.6-8zm16.7 0a8.5 8.5 0 0 1 5.4 1.7l-.6.8a8 8 0 0 0-4.8-1.6c-3.9 0-6.7 3.1-6.7 7.1s2.8 7 6.6 7a7 7 0 0 0 5.2-2.5v-3h-2.7v-.8h3.7v7h-1v-1.4a2.2 2.2 0 0 1 .1-.6h-.1a7 7 0 0 1-5.2 2.2 8 8 0 0 1 .1-15.9zm10 .3h.9v7.2h9.8v-7.2h1v15.4h-1v-7.3H117v7.3h-.9zm16.4 0h8.4v.9h-7.4v6.3h6.1v.8h-6.1v6.5h7.9v.9h-8.9zm20.1 10h-6.5l-2 5.4h-1l5.8-15.4h1l5.7 15.4h-1zm-3.3-8.9s-.3 1.2-.5 1.8l-2.4 6.3h5.9l-2.3-6.3a11.8 11.8 0 0 1-.6-1.8zm9.1-1.1h4.8c4.6 0 7.7 2.8 7.7 7.7s-3.1 7.7-7.7 7.7h-4.8zm4.7 14.5c4.1 0 6.8-2.4 6.8-6.8s-2.7-6.8-6.8-6.8h-3.7v13.6zm11.1-1.5a6.1 6.1 0 0 0 4.1 1.7 3.1 3.1 0 0 0 3.4-3c0-4.4-7.8-3.2-7.8-8 0-2.1 1.8-4 4.6-4a5.8 5.8 0 0 1 3.9 1.4l-.5.9a5 5 0 0 0-3.4-1.4 3.3 3.3 0 0 0-3.6 3.1c0 4 7.8 2.8 7.8 7.9 0 2.3-1.7 4-4.4 4a6.4 6.4 0 0 1-4.7-1.9z"/></svg>