<svg xmlns="http://www.w3.org/2000/svg" width="16" height="16" viewBox="0 0 16 16"><path fill="#231f20" d="M0 0h16v16H0z"/><path fill="#fff" d="M10.6 2.3v11.3H5.3V2.3z"/><path fill="#231f20" d="M10.3 2.8V13H5.53V2.8z"/><rect width="8.1" height="1.52" x="3.8" y="7.1" fill="#fff" rx=".8" transform="rotate(90 7.9 7.9)"/><circle cx="7.9" cy="7.9" r="2.2" fill="#fff"/><circle cx="7.9" cy="7.9" r="1.7" fill="#231f20"/><circle cx="7.9" cy="4.5" r=".6" fill="#231f20"/><circle cx="7.9" cy="4.5" r=".4" fill="#fff"/><circle cx="7.9" cy="11.2" r=".6" fill="#231f20"/><circle cx="7.9" cy="11.2" r=".4" fill="#fff"/><path fill="#fff" d="M9.4 8h-.1a.4.4 0 0 0-.1.3l-.2.2h-.4v-.1l.2-.2a.2.2 0 0 0 .1-.2h-.6a.4.4 0 0 0-.1.3l-.2.2-.2.2h-.6l-.3-.2V8h-.7c0-.1 0-.1.1-.1h.5c0-.2 0-.3.1-.4a.2.2 0 0 1 .2-.2c0-.1.1-.1.2-.2h.3a.1.1 0 0 1 .1.1h-.5a.3.3 0 0 1-.1.2h.8c0-.2.1-.3.1-.4s.1-.2.2-.2H9a1.1 1.1 0 0 1 .3.6h.1c.1 0 .2 0 .2.1zM7.8 8h-.7l.2.2c0 .1.1.1.2.1s.2 0 .2-.1.1-.1.1-.2zm.5-.2h.6a.4.4 0 0 0-.1-.3h-.4a.4.4 0 0 1-.1.3z"/><path fill="#231f20" d="M8.2 4.5zm-.3 0zm.1 0zm.2 6.8h-.6c-.1 0-.1 0-.1-.1h.7zm-.3 0zm.1-.1z"/><path fill="#fff" d="M3.4 8.9l.4-.6.3.6.4-.6.5.6.4-.6.4.6.5-.5.4.5.5-.6.4.6.6-.6.4.6.5-.6.4.6.6-.6.4.6.4-.5.4.5.6-.6.6.6s-.4 6.4-4.6 6.4-4.5-6.4-4.5-6.4z"/><path fill="#231f20" d="M4.4 10.7h.1v.7h-.1zm1.2 0a.5.5 0 0 0-.4.5.4.4 0 0 0 .4.4h.3v-.2H6v.5h-.1a.4.4 0 0 1-.3.2.5.5 0 1 1 0-1zm1.1 0a.5.5 0 0 0-.5.5.5.5 0 0 0 .5.4H7v-.2.5a.4.4 0 0 1-.3.2.5.5 0 1 1 0-1zm.6 0v.5H8v-.5 1-.5h-.7v.5zm1 0h.1v.7h-.1zm1.3.6h-.4l-.2.4.3-1h.1l.4 1h-.1zm-.2-.5h-.1v.4h.3v-.4zm.5-.1h.3a.5.5 0 0 1 0 1h-.3zm.3.9c.3 0 .4-.1.4-.4s-.1-.4-.4-.4H10v.8zm.7-.1h.3l.2-.2c0-.2-.5-.2-.5-.5s.1-.2.3-.2c-.2 0-.2.1-.2.2s.5.2.5.5a.3.3 0 0 1-.3.3h-.3z"/></svg>