<svg xmlns="http://www.w3.org/2000/svg" width="32" height="32" viewBox="0 0 32 32"><path fill="#231f20" d="M0 0h32v32H0z"/><path fill="#fff" d="M21 4.4V27H10.41V4.4z"/><path fill="#231f20" d="M20.5 5.6v20.3h-9.53V5.6z"/><rect width="16.3" height="3.04" x="7.6" y="14.2" fill="#fff" rx="1.5" transform="rotate(90 15.75 15.75)"/><circle cx="15.8" cy="15.7" r="4.5" fill="#fff"/><circle cx="15.8" cy="15.7" r="3.3" fill="#231f20"/><circle cx="15.8" cy="9" r="1.1" fill="#231f20"/><circle cx="15.8" cy="9" r=".9" fill="#fff"/><circle cx="15.8" cy="22.5" r="1.1" fill="#231f20"/><circle cx="15.8" cy="22.5" r=".9" fill="#fff"/><path fill="#fff" d="M18.8 15.9h-.3c-.1.3-.1.5-.2.6l-.3.5-.4.2h-.3L17 17a.3.3 0 0 1-.1-.2c0-.3.1-.4.4-.5s.4-.2.5-.5h-1.3a2.5 2.5 0 0 0-.2.7l-.3.5-.4.3H15a1 1 0 0 1-.7-.2.8.8 0 0 1-.5-.5 1.9 1.9 0 0 1-.2-.8h-1.1c-.1 0-.1-.1-.1-.2h1.1c.1-.2.1-.5.2-.7l.4-.4c.1-.2.2-.3.4-.3h.7a.4.4 0 0 1 .1.3v.3h-.2l-.4.2-.3.2c-.1 0-.1.2-.2.3h1.5l.3-.7a1 1 0 0 1 .4-.5l.7-.2a1 1 0 0 1 .9.4 1.6 1.6 0 0 1 .5 1h.3c.2 0 .3.1.3.2s-.1.2-.3.2zm-3.2 0h-1.4a.8.8 0 0 0 .2.5.6.6 0 0 0 .5.2c.2 0 .3 0 .4-.2s.2-.3.3-.5zm1-.4h1.2a.5.5 0 0 0-.2-.4l-.4-.2-.4.2a.5.5 0 0 0-.2.4z"/><path fill="#231f20" d="M16.3 9.1h-.4A.1.1 0 0 1 16 9h-.6a.1.1 0 0 1-.1-.1h.1c0-.1 0-.1.1-.1h.6V9zm-.6 0zm.2-.1zm.4 13.5a.1.1 0 0 1-.1.1H16c.1 0 .1 0 .1-.1h-.2v.2h-.5v-.2a.1.1 0 0 1 .1-.1h.8c0 .1 0 .2.1.2a.1.1 0 0 1 .1.1zm-.6 0h-.1c.1.1.1.1.1 0zm.2-.1z"/><path fill="#fff" d="M6.7 17.8l.8-1.1.7 1.1.8-1.1.9 1.1.9-1.1.8 1.1 1-1 .7 1 1.1-1.1.8 1.1 1.1-1.1.8 1.1 1.1-1.1.8 1.1 1.1-1.1.8 1.1.9-.9.7.9 1.3-1.1 1 1.1s-.7 12.8-9 12.8-9.1-12.8-9.1-12.8z"/><path fill="#231f20" d="M8.8 21.4h.1V23h-.1zm2.4 0a.9.9 0 0 1 .6.2 1.3 1.3 0 0 0-.6-.2.9.9 0 0 0-.9.9.8.8 0 0 0 .9.8.7.7 0 0 0 .6-.3v-.3h-.3v-.2h.4v.9h-.1a.7.7 0 0 1-.6.3 1 1 0 0 1-1-1 .9.9 0 0 1 1-1.1zm2.1 0a.9.9 0 0 1 .6.2l-.6-.2a.9.9 0 0 0-.9.9.8.8 0 0 0 .8.8.8.8 0 0 0 .7-.3v-.3h-.3v-.2h.4v.9h-.1a.8.8 0 0 1-.7.3 1 1 0 0 1-.9-1 .9.9 0 0 1 1-1.1zm1.2 0h.1v.9h1.3v-.9h.1v1.9h-.1v-.9h-1.3v.9h-.1zm2.1 0h.1V23h-.1zm2.5 1.3h-.8l-.3.6h-.1l.7-1.9h.1l.8 1.9h-.2zm-.4-1.2a1 1 0 0 0-.1.3l-.3.8h.7l-.3-.8v-.3zm1.1-.1h.6a.9.9 0 0 1 1 1c0 .6-.4.9-1 .9h-.6zm.6 1.8a.7.7 0 0 0 .8-.8c0-.6-.3-.9-.8-.9h-.5v1.7zm1.4-.2a.8.8 0 0 0 .5.2c.2 0 .4-.1.4-.3s-1-.4-1-1a.6.6 0 0 1 .6-.5.4.4 0 0 0-.4.4c0 .5.9.3.9 1a.5.5 0 0 1-.5.5.8.8 0 0 1-.6-.3z"/></svg>