<svg xmlns="http://www.w3.org/2000/svg"><symbol id="checkmark" viewBox="0 0 100.35 100.35"><g fill="#231f20"><path d="M96.747 39.242a1.456 1.456 0 1 0-2.833.675c.766 3.212 1.155 6.604 1.155 10.083 0 24.85-20.67 45.067-46.078 45.067S2.913 74.85 2.913 50c0-24.852 20.67-45.07 46.078-45.07 10.119 0 19.785 3.202 27.952 9.26a1.456 1.456 0 0 0 1.735-2.339C70.006 5.417 59.74 2.018 48.991 2.018 21.977 2.018 0 23.542 0 50c0 26.456 21.977 47.98 48.991 47.98S97.982 76.456 97.982 50c0-3.705-.416-7.324-1.235-10.758z"/><path d="M47.98 71.683c-.386 0-.756-.153-1.03-.426L19.637 43.948a1.456 1.456 0 0 1 2.059-2.06l26.223 26.219 49.538-55.486a1.456 1.456 0 1 1 2.173 1.94L49.066 71.197a1.455 1.455 0 0 1-1.045.486h-.041z"/></g></symbol><symbol id="back-arrow" viewBox="0 0 32 32"><path fill="#121313" fill-rule="evenodd" d="M.291 16.749l14.944 14.944c.202.202.467.301.731.299.008 0 .014.004.022.004h15a1 1 0 0 0 1-1c0-.008-.004-.014-.004-.022a1.019 1.019 0 0 0-.299-.731L17.438 15.997 31.715 1.721a1.027 1.027 0 0 0 0-1.452 1.009 1.009 0 0 0-.87-.273H16.134a1.009 1.009 0 0 0-.87.273L.292 15.24a1.016 1.016 0 0 0-.295.755c-.008.272.086.546.294.754zM16.44 1.996h12.096L15.292 15.24a1.016 1.016 0 0 0-.295.755c-.008.272.087.546.295.754l13.247 13.247H16.437L2.438 15.997 16.44 1.996z" clip-rule="evenodd"/></symbol><symbol id="facebook" viewBox="0 0 512 512"><path fill="#1976d2" d="M448 0H64C28.704 0 0 28.704 0 64v384c0 35.296 28.704 64 64 64h384c35.296 0 64-28.704 64-64V64c0-35.296-28.704-64-64-64z"/><path fill="#fafafa" d="M432 256h-80v-64c0-17.664 14.336-16 32-16h32V96h-64c-53.024 0-96 42.976-96 96v64h-64v80h64v176h96V336h48z"/></symbol><symbol id="mail" viewBox="0 0 512 512"><path d="M467 61H45C20.218 61 0 81.196 0 106v300c0 24.72 20.128 45 45 45h422c24.72 0 45-20.128 45-45V106c0-24.72-20.128-45-45-45zm-6.214 30L256.954 294.833 51.359 91h409.427zM30 399.788V112.069l144.479 143.24L30 399.788zM51.213 421l144.57-144.57 50.657 50.222c5.864 5.814 15.327 5.795 21.167-.046L317 277.213 460.787 421H51.213zM482 399.787L338.213 256 482 112.212v287.575z"/></symbol><symbol id="close" viewBox="0 0 512 512"><path d="M256 512C114.84 512 0 397.16 0 256S114.84 0 256 0s256 114.84 256 256-114.84 256-256 256zm0-475.43C135.008 36.57 36.57 135.008 36.57 256S135.008 475.43 256 475.43 475.43 376.992 475.43 256 376.992 36.57 256 36.57zm0 0"/><path d="M347.43 365.715c-4.68 0-9.36-1.785-12.93-5.36L151.645 177.5c-7.145-7.145-7.145-18.715 0-25.855 7.14-7.141 18.714-7.145 25.855 0L360.355 334.5c7.145 7.145 7.145 18.715 0 25.855a18.207 18.207 0 0 1-12.925 5.36zm0 0"/><path d="M164.57 365.715c-4.68 0-9.355-1.785-12.925-5.36-7.145-7.14-7.145-18.714 0-25.855L334.5 151.645c7.145-7.145 18.715-7.145 25.855 0 7.141 7.14 7.145 18.714 0 25.855L177.5 360.355a18.216 18.216 0 0 1-12.93 5.36zm0 0"/></symbol><symbol id="open-menu" viewBox="0 0 512 512"><path d="M492 236H20c-11.046 0-20 8.954-20 20s8.954 20 20 20h472c11.046 0 20-8.954 20-20s-8.954-20-20-20zm0-160H20C8.954 76 0 84.954 0 96s8.954 20 20 20h472c11.046 0 20-8.954 20-20s-8.954-20-20-20zm0 320H20c-11.046 0-20 8.954-20 20s8.954 20 20 20h472c11.046 0 20-8.954 20-20s-8.954-20-20-20z"/></symbol><symbol id="instagram-sketched" viewBox="0 0 24 24"><linearGradient id="a" x1="-37.11" x2="-26.55" y1="-72.7" y2="-84.05" gradientTransform="matrix(0 -1.982 -1.844 0 -132.522 -51.077)" gradientUnits="userSpaceOnUse"><stop offset="0" stop-color="#fd5"/><stop offset=".5" stop-color="#ff543e"/><stop offset="1" stop-color="#c837ab"/></linearGradient><path fill="url(#a)" d="M1.5 1.633C-.386 3.592 0 5.673 0 11.995c0 5.25-.916 10.513 3.878 11.752 1.497.385 14.761.385 16.256-.002 1.996-.515 3.62-2.134 3.842-4.957.031-.394.031-13.185-.001-13.587-.236-3.007-2.087-4.74-4.526-5.091C18.89.029 18.778.005 15.91 0 5.737.005 3.507-.448 1.5 1.633z"/><path fill="#fff" d="M11.998 3.139c-3.631 0-7.079-.323-8.396 3.057-.544 1.396-.465 3.209-.465 5.805 0 2.278-.073 4.419.465 5.804 1.314 3.382 4.79 3.058 8.394 3.058 3.477 0 7.062.362 8.395-3.058.545-1.41.465-3.196.465-5.804 0-3.462.191-5.697-1.488-7.375-1.7-1.7-3.999-1.487-7.374-1.487zm-.794 1.597c7.574-.012 8.538-.854 8.006 10.843-.189 4.137-3.339 3.683-7.211 3.683-7.06 0-7.263-.202-7.263-7.265 0-7.145.56-7.257 6.468-7.263zm5.524 1.471a1.063 1.063 0 1 0 0 2.126 1.063 1.063 0 0 0 0-2.126zm-4.73 1.243a4.55 4.55 0 1 0 .001 9.101 4.55 4.55 0 0 0-.001-9.101zm0 1.597c3.905 0 3.91 5.908 0 5.908-3.904 0-3.91-5.908 0-5.908z"/></symbol><symbol id="phone" viewBox="0 0 384 384"><path d="M353.188 252.052c-23.51 0-46.594-3.677-68.469-10.906-10.719-3.656-23.896-.302-30.438 6.417l-43.177 32.594c-50.073-26.729-80.917-57.563-107.281-107.26l31.635-42.052c8.219-8.208 11.167-20.198 7.635-31.448-7.26-21.99-10.948-45.063-10.948-68.583C132.146 13.823 118.323 0 101.333 0h-70.52C13.823 0 0 13.823 0 30.813 0 225.563 158.438 384 353.188 384c16.99 0 30.813-13.823 30.813-30.813v-70.323c-.001-16.989-13.824-30.812-30.813-30.812z"/></symbol><symbol id="pin" viewBox="0 0 512 512"><path d="M256 0C153.755 0 70.573 83.182 70.573 185.426c0 126.888 165.939 313.167 173.004 321.035 6.636 7.391 18.222 7.378 24.846 0 7.065-7.868 173.004-194.147 173.004-321.035C441.425 83.182 358.244 0 256 0zm0 278.719c-51.442 0-93.292-41.851-93.292-93.293S204.559 92.134 256 92.134s93.291 41.851 93.291 93.293-41.85 93.292-93.291 93.292z"/></symbol><symbol id="user" viewBox="-42 0 512 512"><path d="M210.352 246.633c33.882 0 63.222-12.153 87.195-36.13 23.973-23.972 36.125-53.304 36.125-87.19 0-33.876-12.152-63.211-36.129-87.192C273.566 12.152 244.23 0 210.352 0c-33.887 0-63.22 12.152-87.192 36.125s-36.129 53.309-36.129 87.188c0 33.886 12.156 63.222 36.133 87.195 23.977 23.969 53.313 36.125 87.188 36.125zm215.777 147.07c-.692-9.976-2.09-20.86-4.149-32.351-2.078-11.579-4.753-22.524-7.957-32.528-3.308-10.34-7.808-20.55-13.37-30.336-5.774-10.156-12.555-19-20.165-26.277-7.957-7.613-17.699-13.734-28.965-18.2-11.226-4.44-23.668-6.69-36.976-6.69-5.227 0-10.281 2.144-20.043 8.5a2711.03 2711.03 0 0 1-20.879 13.46c-6.707 4.274-15.793 8.278-27.016 11.903-10.949 3.543-22.066 5.34-33.039 5.34-10.972 0-22.086-1.797-33.047-5.34-11.21-3.622-20.296-7.625-26.996-11.899a2853.13 2853.13 0 0 1-20.898-13.469c-9.75-6.355-14.809-8.5-20.035-8.5-13.313 0-25.75 2.254-36.973 6.7-11.258 4.457-21.004 10.578-28.969 18.199-7.605 7.281-14.39 16.12-20.156 26.273-5.558 9.785-10.058 19.992-13.371 30.34-3.2 10.004-5.875 20.945-7.953 32.524-2.059 11.476-3.457 22.363-4.149 32.363A438.821 438.821 0 0 0 0 423.949c0 26.727 8.496 48.363 25.25 64.32 16.547 15.747 38.441 23.735 65.066 23.735h246.532c26.625 0 48.511-7.984 65.062-23.734 16.758-15.946 25.254-37.586 25.254-64.325-.004-10.316-.351-20.492-1.035-30.242zm0 0"/></symbol><symbol id="twitter" viewBox="0 0 512 512"><path fill="#03a9f4" d="M512 97.248c-19.04 8.352-39.328 13.888-60.48 16.576 21.76-12.992 38.368-33.408 46.176-58.016-20.288 12.096-42.688 20.64-66.56 25.408C411.872 60.704 384.416 48 354.464 48c-58.112 0-104.896 47.168-104.896 104.992 0 8.32.704 16.32 2.432 23.936-87.264-4.256-164.48-46.08-216.352-109.792-9.056 15.712-14.368 33.696-14.368 53.056 0 36.352 18.72 68.576 46.624 87.232-16.864-.32-33.408-5.216-47.424-12.928v1.152c0 51.008 36.384 93.376 84.096 103.136-8.544 2.336-17.856 3.456-27.52 3.456-6.72 0-13.504-.384-19.872-1.792 13.6 41.568 52.192 72.128 98.08 73.12-35.712 27.936-81.056 44.768-130.144 44.768-8.608 0-16.864-.384-25.12-1.44C46.496 446.88 101.6 464 161.024 464c193.152 0 298.752-160 298.752-298.688 0-4.64-.16-9.12-.384-13.568 20.832-14.784 38.336-33.248 52.608-54.496z"/></symbol></svg>