<svg xmlns="http://www.w3.org/2000/svg" width="64" height="64" viewBox="0 0 64 64"><path fill="#fff" d="M0 0h64v64H0z"/><path fill="#231f20" d="M42.1 8.9v45.2H20.92V8.9z"/><path fill="#fff" d="M41 11.2v40.7H21.93V11.2z"/><rect width="32.5" height="6.08" x="15.2" y="28.5" fill="#231f20" rx="3" transform="rotate(90 31.5 31.5)"/><circle cx="31.5" cy="31.5" r="8.9" fill="#231f20"/><circle cx="31.5" cy="31.5" r="6.7" fill="#fff"/><circle cx="31.5" cy="18" r="2.3" fill="#fff"/><circle cx="31.5" cy="18" r="1.7" fill="#231f20"/><circle cx="31.5" cy="44.9" r="2.3" fill="#fff"/><circle cx="31.5" cy="44.9" r="1.7" fill="#231f20"/><path fill="#231f20" d="M37.6 31.8h-.7a2.1 2.1 0 0 1-.3 1.2 1.5 1.5 0 0 1-.6.9l-.7.5h-.7l-.5-.2a.9.9 0 0 1-.3-.6.8.8 0 0 1 .7-.8 1.5 1.5 0 0 0 1.1-1.1h-2.7a6.8 6.8 0 0 1-.4 1.3 2.6 2.6 0 0 1-.5.9 1.8 1.8 0 0 1-.9.6 2 2 0 0 1-1.1.2 3.5 3.5 0 0 1-1.4-.3 4.7 4.7 0 0 1-1-1 4.2 4.2 0 0 1-.5-1.7h-2.2a.5.5 0 0 1-.2-.4l.2-.3h2.2a5 5 0 0 1 .3-1.3 8.6 8.6 0 0 1 .7-1l.9-.5.8-.2.6.2a.7.7 0 0 1 .2.6.7.7 0 0 1-.1.5c-.1.2-.2.3-.4.3l-.8.3a1 1 0 0 0-.5.4 1.6 1.6 0 0 0-.4.7h3.1a4.6 4.6 0 0 1 .5-1.4 3.9 3.9 0 0 1 .8-1 3.3 3.3 0 0 1 1.4-.4 2.6 2.6 0 0 1 1.9.8 2.8 2.8 0 0 1 .8 2h.7c.4 0 .5.2.5.4s-.1.4-.5.4zm-6.4 0h-2.8a1.9 1.9 0 0 0 .5 1.1 1.6 1.6 0 0 0 .9.3 1.2 1.2 0 0 0 .9-.3 2.8 2.8 0 0 0 .5-1.1zm2-.8h2.4a2 2 0 0 0-.4-.8 1 1 0 0 0-.8-.3l-.8.2a3.9 3.9 0 0 0-.4.9z"/><path fill="#fff" d="M32.7 18.1h-.2v.3l-.2.2h-.4c0-.1 0-.1.1-.1s.2-.1.3-.3h-.6c0 .2 0 .2-.1.3s0 .1-.1.2h-.7l-.2-.2c0-.1-.1-.2-.1-.4 0-.1.1-.2.1-.3s.1-.1.1-.2h.5a.1.1 0 0 0 .1.1.1.1 0 0 1-.1.1h-.1a.1.1 0 0 0-.1.1h-.1c-.1.1-.1.1-.1.2h.6c0-.1.1-.2.1-.3l.2-.2h.3c.1 0 .3.1.3.2a.5.5 0 0 1 .2.4h.2a.1.1 0 0 1 .1.1zm-1.3 0h-.6a.4.4 0 0 0 .1.3h.4a.4.4 0 0 1 .1-.3zm.4-.1h.5v-.2H32a.1.1 0 0 0-.1.1c-.1-.1-.1 0-.1.1zm.9 27.1h-.2v.2l-.2.2a.1.1 0 0 0-.1.1h-.3c0-.1 0-.1.1-.1l.3-.2h-.6c0 .1 0 .1-.1.2s0 .1-.1.2h-.7c0-.1-.1-.1-.2-.2s-.1-.2-.1-.3c0-.1.1-.2.1-.3s.1-.1.1-.2h.5a.1.1 0 0 0 .1.1.1.1 0 0 1-.1.1c0 .1 0 .1-.1.1a.1.1 0 0 0-.1.1h-.1c-.1.1-.1.1-.1.2h.6c0-.1.1-.2.1-.3s.1-.2.2-.2h.3c.1 0 .3.1.3.2a.5.5 0 0 1 .2.4h.2a.1.1 0 0 1 .1.1zm-1.3 0h-.6a.3.3 0 0 0 .1.2h.4c0-.1 0-.2.1-.2zm.4-.2h.5v-.2H32c-.2 0-.2.1-.2.2z"/><path fill="#231f20" d="M13.3 35.5l1.6-2.2 1.5 2.2 1.6-2.2 1.7 2.2 1.9-2.2 1.6 2.2 1.9-1.9 1.6 1.9 2.2-2.2 1.5 2.2 2.2-2.2 1.6 2.2 2.2-2.2 1.7 2.2 2.2-2.2 1.5 2.2 1.8-1.8 1.5 1.8 2.5-2.2 2.1 2.2s-1.5 25.6-18.2 25.6-18.2-25.6-18.2-25.6z"/><path fill="#fff" d="M17.6 42.8h2.1v.2h-1.9v1.6h1.6v.2h-1.6v1.6h2v.2h-2.2zm4.8-.1a2 2 0 0 1 1.3.5h-.1a2.5 2.5 0 0 0-1.2-.3 1.6 1.6 0 0 0-1.7 1.7 1.7 1.7 0 0 0 1.6 1.8 1.8 1.8 0 0 0 1.3-.6V45H23v-.2h.9v1.7h-.3V46a1.6 1.6 0 0 1-1.3.6 2 2 0 0 1 .1-4zm4.1 0a2.1 2.1 0 0 1 1.4.5h-.2a2.1 2.1 0 0 0-1.2-.3 1.7 1.7 0 0 0-1.7 1.7 1.7 1.7 0 0 0 1.7 1.8 1.8 1.8 0 0 0 1.3-.6V45h-.7v-.2h.9v1.7h-.2V46a1.8 1.8 0 0 1-1.3.6 2 2 0 0 1 0-4zm2.5.1h.3v1.8h2.4v-1.8h.2v3.8h-.2v-1.8h-2.4v1.8H29zm4.1 0h2.1v.2h-1.8v1.6h1.5v.2h-1.5v1.6h1.9v.2h-2.2zm5.1 2.5h-1.7l-.5 1.3h-.2l1.4-3.8h.3l1.4 3.8h-.2zm-.9-2.2s0 .3-.1.4l-.6 1.6h1.5l-.6-1.6a1.4 1.4 0 0 1-.2-.4zm2.3-.3h1.2a1.9 1.9 0 1 1 0 3.8h-1.2zm1.2 3.6a1.7 1.7 0 0 0 0-3.4h-1v3.4zm2.7-.3a1.6 1.6 0 0 0 1.1.4.7.7 0 0 0 .8-.8c0-1.1-1.9-.8-1.9-2a1 1 0 0 1 1.1-1 1.5 1.5 0 0 1 1 .4v.2a1.7 1.7 0 0 0-.9-.3.8.8 0 0 0-.9.7c0 1 2 .7 2 2a1 1 0 0 1-1.1 1 1.6 1.6 0 0 1-1.2-.5z"/></svg>