<svg xmlns="http://www.w3.org/2000/svg" width="16" height="16" viewBox="0 0 16 16"><path fill="#fff" d="M0 0h16v16H0z"/><path fill="#231f20" d="M10.5 2.2v11.3H5.2V2.2z"/><path fill="#fff" d="M10.2 2.8V13H5.43V2.8z"/><rect width="8.1" height="1.52" x="3.8" y="7.1" fill="#231f20" rx=".8" transform="rotate(90 7.85 7.85)"/><circle cx="7.9" cy="7.9" r="2.2" fill="#231f20"/><circle cx="7.9" cy="7.9" r="1.7" fill="#fff"/><circle cx="7.9" cy="4.5" r=".6" fill="#fff"/><circle cx="7.9" cy="4.5" r=".4" fill="#231f20"/><circle cx="7.9" cy="11.2" r=".6" fill="#fff"/><circle cx="7.9" cy="11.2" r=".4" fill="#231f20"/><path fill="#231f20" d="M9.4 8h-.2v.3l-.2.2h-.5v-.3c.2 0 .3-.1.3-.2h-.6a.4.4 0 0 1-.1.3v.2l-.2.2h-.7l-.3-.2a.6.6 0 0 1-.1-.5c0-.2 0-.3.1-.4a.3.3 0 0 1 .1-.4l.2-.2h.4c0 .1 0 .1-.1.1h-.3v.2H8c0-.2 0-.3.1-.4a.2.2 0 0 1 .2-.2H9a1.1 1.1 0 0 1 .2.6h.2c.1 0 .1 0 .1.1zM7.8 8h-.7v.2h.5zm.5-.2h.6v-.3h-.5z"/><path fill="#fff" d="M8.2 4.5h-.1c0 .1 0 .1-.1.1h-.1c0 .1 0 .1-.1.1h-.1a.1.1 0 0 1 .1-.1h.4zm-.4 0zm.1 0zm.3 6.8zm-.4 0zm.1-.1z"/><path fill="#231f20" d="M3.3 8.9l.4-.6.4.6.4-.6.4.6.5-.6.4.6.5-.5.4.5.5-.6.4.6.6-.6.4.6.5-.6.4.6.6-.6.4.6.4-.5.4.5.6-.6.5.6s-.4 6.4-4.5 6.4-4.6-6.4-4.6-6.4z"/><path fill="#fff" d="M4.4 10.7h.1v.7h-.1zm1.2 0c-.3 0-.4.2-.4.5a.4.4 0 0 0 .4.4h.3v-.2H6v.5h-.1a.4.4 0 0 1-.3.2.5.5 0 1 1 0-1zm1 0a.5.5 0 0 0-.4.5.4.4 0 0 0 .4.4H7v-.2.5l-.4.2a.5.5 0 0 1 0-1zm.7 0v.5h.6v-.5H8v1h-.1v-.5h-.6v.5zm1 0v.7zm1.2.6h-.4v.4h-.2l.4-1h.1l.3 1zm-.2-.5v.4h.3v-.4zm.6-.1h.3a.5.5 0 0 1 0 1h-.3zm.3.9a.4.4 0 1 0 0-.8H10v.8zm.7-.1h.2c.2 0 .3-.1.3-.2s-.5-.2-.5-.5.1-.2.3-.2c-.2 0-.3.1-.3.2s.5.2.5.5a.3.3 0 0 1-.3.3h-.2z"/></svg>