<svg xmlns="http://www.w3.org/2000/svg" width="256" height="256" viewBox="0 0 256 256"><defs><linearGradient id="a" x2="256" y2="256" gradientUnits="userSpaceOnUse"><stop offset="0" stop-color="#fff799"/><stop offset=".15" stop-color="#fff394"/><stop offset=".34" stop-color="#fee684"/><stop offset=".55" stop-color="#fcd26b"/><stop offset=".78" stop-color="#fab647"/><stop offset="1" stop-color="#f7941d"/></linearGradient></defs><path fill="url(#a)" d="M0 0h256v256H0z"/><path fill="#5fbb46" d="M168.4 35.6v180.9H83.67V35.6z"/><path fill="#479537" d="M164.1 44.6v162.8H87.84V44.6z"/><rect width="130.1" height="24.33" x="61" y="113.8" fill="#2d6f26" rx="8.4" transform="rotate(90 126.05 125.95)"/><circle cx="126" cy="126" r="35.6" fill="#6c9943"/><circle cx="126" cy="126" r="26.7" fill="#737a3f"/><circle cx="126" cy="71.9" r="9.1" fill="#6c9943"/><circle cx="126" cy="71.9" r="6.8" fill="#737a3f"/><circle cx="126" cy="179.7" r="9.1" fill="#6c9943"/><circle cx="126" cy="179.7" r="6.8" fill="#737a3f"/><path fill="#231f20" d="M150.1 127.6h-2.9a13 13 0 0 1-1.1 4.7 8.9 8.9 0 0 1-2.6 3.5 10.6 10.6 0 0 1-2.7 1.8 7.2 7.2 0 0 1-2.6.7 3.4 3.4 0 0 1-2.3-1 3.2 3.2 0 0 1-.9-2.3 3.2 3.2 0 0 1 2.7-3.3 6.1 6.1 0 0 0 4.4-4.1h-10.9c-.6 2.1-1.1 3.8-1.6 5.1a10.8 10.8 0 0 1-2.1 3.4 9.4 9.4 0 0 1-3.4 2.5 10.5 10.5 0 0 1-4.4.9 11.8 11.8 0 0 1-5.5-1.4 10.6 10.6 0 0 1-4.3-4.1 16 16 0 0 1-1.9-6.4h-6.5a5.7 5.7 0 0 1-2.2-.3c-.5-.2-.7-.7-.7-1.4a1.7 1.7 0 0 1 .5-1.3 4 4 0 0 1 1.8-.4h7a16.5 16.5 0 0 1 1.5-5.3 11.9 11.9 0 0 1 2.7-3.8 11.6 11.6 0 0 1 3.4-2.2 8.4 8.4 0 0 1 3.4-.8 3.4 3.4 0 0 1 2.3 1 3.7 3.7 0 0 1 1 2.5 3.1 3.1 0 0 1-.6 1.9 2.6 2.6 0 0 1-1.5 1.2 19.8 19.8 0 0 0-3.3 1.2 5.5 5.5 0 0 0-2 1.5 8.4 8.4 0 0 0-1.5 2.8h12.1a37.4 37.4 0 0 1 2.2-5.8 10.3 10.3 0 0 1 3.4-3.8 9.5 9.5 0 0 1 5.6-1.4 9.8 9.8 0 0 1 7.3 2.8c1.9 1.9 3 4.7 3.3 8.2h2.8c1.5 0 2.2.6 2.2 1.7s-.7 1.7-2.1 1.7zm-25.6 0h-11.4a6.5 6.5 0 0 0 2.1 4 5 5 0 0 0 3.7 1.4 4.5 4.5 0 0 0 3.5-1.3 13 13 0 0 0 2.1-4.1zm7.7-3.4h10a12 12 0 0 0-1.7-3.4 4.3 4.3 0 0 0-3.3-1.2 4 4 0 0 0-3.1 1.2 10.5 10.5 0 0 0-1.9 3.4zm-1.6-51.6h-.5a4.6 4.6 0 0 1-.3.9 1.3 1.3 0 0 1-.5.7l-.6.4h-.9a.6.6 0 0 1-.2-.5.7.7 0 0 1 .5-.7 1.1 1.1 0 0 0 .9-.8h-2.2a6.2 6.2 0 0 1-.3 1 1.6 1.6 0 0 1-.4.7 1.8 1.8 0 0 1-.7.5l-.9.2a2 2 0 0 1-1.1-.3 3.4 3.4 0 0 1-.9-.8 5 5 0 0 1-.4-1.3h-1.7a.2.2 0 0 1-.2-.2c0-.2.1-.3.2-.3h1.7l.3-1.1.6-.7a1.8 1.8 0 0 1 .7-.5h.6c.2 0 .4 0 .5.2a.8.8 0 0 1 .2.5.6.6 0 0 1-.1.4l-.3.2-.7.2c-.1.1-.3.2-.4.4l-.3.5h2.5a5.6 5.6 0 0 1 .4-1.2l.7-.7a1.8 1.8 0 0 1 1.1-.3 2 2 0 0 1 1.5.6 2.4 2.4 0 0 1 .7 1.6h.5c.3 0 .5.1.5.4s-.2 0-.5 0zm-5.1 0h-2.3a1.2 1.2 0 0 0 .4.8 1.1 1.1 0 0 0 .7.3.8.8 0 0 0 .7-.3 2.8 2.8 0 0 0 .5-.8zm1.5-.7h2l-.3-.7-.7-.2-.6.2a4.3 4.3 0 0 0-.4.7zm3.6 108.3h-.5l-.3 1-.5.7-.6.3-.5.2-.4-.2a.6.6 0 0 1-.2-.5.8.8 0 0 1 .5-.7 1.1 1.1 0 0 0 .9-.8h-2.2a6.2 6.2 0 0 1-.3 1 1.6 1.6 0 0 1-.4.7 1.8 1.8 0 0 1-.7.5l-.9.2a2 2 0 0 1-1.1-.3 2.3 2.3 0 0 1-.9-.8 5 5 0 0 1-.4-1.3h-1.7l-.2-.2.2-.3h1.7l.3-1 .6-.8a1.8 1.8 0 0 1 .7-.5h.6l.5.2a.8.8 0 0 1 .2.5.6.6 0 0 1-.1.4l-.3.2-.7.3a.5.5 0 0 0-.4.3l-.3.5h2.5a3.6 3.6 0 0 1 .4-1.1 1.9 1.9 0 0 1 .7-.8 1.8 1.8 0 0 1 1.1-.3 2 2 0 0 1 1.5.6 2.6 2.6 0 0 1 .7 1.6h.5c.3 0 .5.1.5.4s-.2 0-.5 0zm-5.1 0h-2.3a1 1 0 0 0 .4.8 1.1 1.1 0 0 0 .7.3.8.8 0 0 0 .7-.3 2.8 2.8 0 0 0 .5-.8zm1.5-.7h2a1.6 1.6 0 0 0-.3-.6.9.9 0 0 0-.7-.3l-.6.2a4.3 4.3 0 0 0-.4.7z"/><path fill="#ebebec" d="M53.2 142.1l6.6-8.8 5.8 8.8 6.2-8.8 7.2 8.8 7.5-8.8 6.2 8.8 7.8-7.9 6.2 7.9 8.8-8.8 6.1 8.8 8.8-8.8 6.6 8.8 8.8-8.8 6.5 8.8 8.8-8.8 6.2 8.8 7.1-7.2 5.9 7.2 10.1-8.8 8.4 8.8s-6.1 102.3-72.8 102.3-72.8-102.3-72.8-102.3z"/><path fill="#231f20" d="M70.4 175.6h8.4v.9h-7.5v6.3h6.2v.9h-6.2v6.5h7.9v.8h-8.8zm19-.2a8.5 8.5 0 0 1 5.4 1.7l-.6.7a7.9 7.9 0 0 0-4.8-1.5 6.8 6.8 0 0 0-6.7 7c0 4 2.8 7.1 6.6 7.1a7.3 7.3 0 0 0 5.3-2.5v-3h-2.8v-.9h3.7v7h-.9v-2a7.2 7.2 0 0 1-5.3 2.3c-4.3 0-7.5-3.5-7.5-8a7.7 7.7 0 0 1 7.6-7.9zm16.7 0a8.5 8.5 0 0 1 5.4 1.7l-.6.7a8.3 8.3 0 0 0-4.8-1.5 6.7 6.7 0 0 0-6.7 7c0 4 2.8 7.1 6.6 7.1a7 7 0 0 0 5.2-2.5v-3h-2.7v-.9h3.7v7h-1v-1.3a3.5 3.5 0 0 1 .1-.7h-.1a6.9 6.9 0 0 1-5.2 2.3 8 8 0 0 1 .1-15.9zm10 .2h.9v7.3h9.8v-7.3h1V191h-1v-7.2H117v7.2h-.9zm16.4 0h8.4v.9h-7.4v6.3h6.1v.9h-6.1v6.5h7.9v.8h-8.9zm20.1 10.1h-6.5l-2 5.3h-1l5.8-15.4h1l5.7 15.4h-1zm-3.3-9l-.5 1.9-2.4 6.2h5.9l-2.3-6.2a16.2 16.2 0 0 1-.6-1.9zm9.1-1.1h4.8c4.6 0 7.7 2.9 7.7 7.7s-3.1 7.7-7.7 7.7h-4.8zm4.7 14.6c4.1 0 6.8-2.4 6.8-6.9s-2.7-6.8-6.8-6.8h-3.7v13.7zm11.1-1.5a6.1 6.1 0 0 0 4.1 1.7 3.1 3.1 0 0 0 3.4-3.1c0-4.3-7.8-3.1-7.8-7.9 0-2.1 1.8-4 4.6-4a5.8 5.8 0 0 1 3.9 1.4l-.5.8a5.1 5.1 0 0 0-3.4-1.3c-2.3 0-3.6 1.5-3.6 3 0 4.1 7.8 2.8 7.8 8 0 2.2-1.7 4-4.4 4a6.4 6.4 0 0 1-4.7-1.9z"/></svg>