<svg xmlns="http://www.w3.org/2000/svg" width="32" height="32" viewBox="0 0 32 32"><defs><linearGradient id="a" x2="32" y2="32" gradientUnits="userSpaceOnUse"><stop offset="0" stop-color="#fff799"/><stop offset=".15" stop-color="#fff394"/><stop offset=".34" stop-color="#fee684"/><stop offset=".55" stop-color="#fcd26b"/><stop offset=".78" stop-color="#fab647"/><stop offset="1" stop-color="#f7941d"/></linearGradient></defs><path fill="url(#a)" d="M0 0h32v32H0z"/><path fill="#5fbb46" d="M21 4.4V27H10.41V4.4z"/><path fill="#479537" d="M20.5 5.6v20.3h-9.53V5.6z"/><rect width="16.3" height="3.04" x="7.6" y="14.2" fill="#2d6f26" rx="1.5" transform="rotate(90 15.75 15.75)"/><circle cx="15.8" cy="15.7" r="4.5" fill="#6c9943"/><circle cx="15.8" cy="15.7" r="3.3" fill="#737a3f"/><circle cx="15.8" cy="9" r="1.1" fill="#6c9943"/><circle cx="15.8" cy="9" r=".9" fill="#737a3f"/><circle cx="15.8" cy="22.5" r="1.1" fill="#6c9943"/><circle cx="15.8" cy="22.5" r=".9" fill="#737a3f"/><path fill="#231f20" d="M18.8 15.9h-.4a3.5 3.5 0 0 1-.1.6 1 1 0 0 1-.4.5l-.3.2H17a.4.4 0 0 1-.1-.3c0-.2.1-.4.3-.4a.9.9 0 0 0 .6-.6h-1.4a6.4 6.4 0 0 1-.2.7c-.1.1-.1.3-.3.4s-.2.3-.4.3h-1.2a3.4 3.4 0 0 1-.6-.6 1.5 1.5 0 0 1-.2-.8h-1.1a.3.3 0 0 1-.1-.2h1.2a1.4 1.4 0 0 1 .2-.6l.3-.5.4-.3h.7l.2.3a.4.4 0 0 1-.1.3c0 .1-.1.1-.2.1l-.4.2-.3.2c0 .1-.1.2-.1.3h1.5a6.4 6.4 0 0 1 .2-.7 1.2 1.2 0 0 1 .5-.5l.7-.2a1.5 1.5 0 0 1 .9.4 1.5 1.5 0 0 1 .4 1h.4l.2.2h-.2zm-3.2 0h-1.5a3.3 3.3 0 0 0 .3.6h.9zm.9-.4h1.3l-.2-.4h-.8zm-.2-6.4h-.4A.1.1 0 0 1 16 9h-.6a.1.1 0 0 1-.1-.1h.1c0-.1 0-.1.1-.1h.6V9zm-.6 0zm.2-.1zm.4 13.5a.1.1 0 0 1-.1.1H16c.1 0 .1 0 .1-.1h-.2v.2h-.5v-.2a.1.1 0 0 1 .1-.1h.8c0 .1 0 .2.1.2a.1.1 0 0 1 .1.1zm-.6 0h-.1c.1.1.1.1.1 0zm.2-.1z"/><path fill="#ebebec" d="M6.7 17.8l.8-1.1.7 1.1.8-1.1.9 1.1.9-1.1.8 1.1 1-1 .7 1 1.1-1.1.8 1.1 1.1-1.1.8 1.1 1.1-1.1.8 1.1 1.1-1.1.8 1.1.9-.9.7.9 1.3-1.1 1 1.1s-.7 12.8-9 12.8-9.1-12.8-9.1-12.8z"/><path fill="#231f20" d="M8.8 22h.1v1.6h-.1zm2.4-.1a.9.9 0 0 1 .6.2 1.3 1.3 0 0 0-.6-.2.9.9 0 0 0 0 1.8.8.8 0 0 0 .6-.3V23h.1v.9h-.1v-.2a.7.7 0 0 1-.6.3.9.9 0 0 1-1-1 1 1 0 0 1 1-1.1zm2.1 0a.9.9 0 0 1 .6.2l-.6-.2a.9.9 0 0 0-.9.9.9.9 0 0 0 .8.9.8.8 0 0 0 .7-.3V23h.1v.9h-.1v-.2a.8.8 0 0 1-.7.3.9.9 0 0 1-.9-1 1 1 0 0 1 1-1.1zm1.2.1h.1v.9h1.2V22h.2v1.9h-.2V23h-1.2v.9h-.1zm2.1 0h.1v1.6h-.1zm2.5 1.2h-.8l-.3.7h-.1l.7-1.9h.1l.8 1.9h-.2zm-.4-1.1a.3.3 0 0 0-.1.2l-.3.8h.7l-.3-.8v-.2zm1.1-.1h.6c.6 0 1 .3 1 .9a.9.9 0 0 1-1 1h-.6zm.6 1.8c.5 0 .8-.3.8-.9a.7.7 0 0 0-.8-.8h-.5v1.7zm1.4-.2a.8.8 0 0 0 .5.2.4.4 0 0 0 .4-.4c0-.5-1-.4-1-1a.6.6 0 0 1 .6-.5.8.8 0 0 1 .5.2h-.1a.4.4 0 0 0-.4-.2.4.4 0 0 0-.4.4c0 .5.9.4.9 1a.5.5 0 0 1-.5.5.9.9 0 0 1-.6-.2z"/></svg>