<svg xmlns="http://www.w3.org/2000/svg" width="16" height="16" viewBox="0 0 16 16"><defs><linearGradient id="a" x2="16" y2="16" gradientUnits="userSpaceOnUse"><stop offset="0" stop-color="#fff799"/><stop offset=".15" stop-color="#fff394"/><stop offset=".34" stop-color="#fee684"/><stop offset=".55" stop-color="#fcd26b"/><stop offset=".78" stop-color="#fab647"/><stop offset="1" stop-color="#f7941d"/></linearGradient></defs><path fill="url(#a)" d="M0 0h16v16H0z"/><path fill="#5fbb46" d="M10.5 2.2v11.3H5.2V2.2z"/><path fill="#479537" d="M10.2 2.8V13H5.43V2.8z"/><rect width="8.1" height="1.52" x="3.8" y="7.1" fill="#2d6f26" rx=".8" transform="rotate(90 7.85 7.85)"/><circle cx="7.9" cy="7.9" r="2.2" fill="#6c9943"/><circle cx="7.9" cy="7.9" r="1.7" fill="#737a3f"/><circle cx="7.9" cy="4.5" r=".6" fill="#6c9943"/><circle cx="7.9" cy="4.5" r=".4" fill="#737a3f"/><circle cx="7.9" cy="11.2" r=".6" fill="#6c9943"/><circle cx="7.9" cy="11.2" r=".4" fill="#737a3f"/><path fill="#231f20" d="M9.4 8h-.2a.4.4 0 0 1-.1.3v.2h-.6v-.1l.2-.2.2-.2h-.7c0 .1-.1.2-.1.3v.2l-.2.2h-.8l-.2-.2a.6.6 0 0 1-.1-.5h-.1a.8.8 0 0 0 .1-.4l.2-.4h.6a.1.1 0 0 1-.1.1h-.3c-.1 0-.1.1-.1.2h.7l.2-.1a.2.2 0 0 1 .2-.2h.3c.2 0 .4 0 .5.2a.6.6 0 0 1 .2.5h.2c.1 0 .1 0 .1.1zM7.8 8h-.7c0 .1 0 .2.1.2h.2c.1 0 .2 0 .2-.1zm.5-.2h.6v-.2h-.5a.4.4 0 0 0-.1.2zm-.1-3.3h-.1c0 .1 0 .1-.1.1h-.1c0 .1 0 .1-.1.1h-.1a.1.1 0 0 1 .1-.1h.4zm-.4 0zm.1 0zm.3 6.8zm-.4 0zm.1-.1z"/><path fill="#ebebec" d="M3.3 8.9l.4-.6.4.6.4-.6.4.6.5-.6.4.6.5-.5.4.5.5-.6.4.6.6-.6.4.6.5-.6.4.6.6-.6.4.6.4-.5.4.5.6-.6.5.6s-.4 6.4-4.5 6.4-4.6-6.4-4.6-6.4z"/><path fill="#231f20" d="M4.4 11h.1v.8h-.1zm1.2 0c-.3 0-.4.2-.4.5a.4.4 0 0 0 .7.2H6v.4h-.1a.4.4 0 0 1-.3.2.5.5 0 0 1-.5-.5.5.5 0 0 1 .5-.8zm1 0a.5.5 0 0 0-.4.5.4.4 0 0 0 .4.4l.4-.2v.4l-.4.2c-.2 0-.4-.3-.4-.5a.5.5 0 0 1 .4-.8zm.7 0v.4h.6V11H8v.9h-.1v-.4h-.6v.4zm1 0v.8zm1.2.6h-.4v.3h-.2l.4-.9h.1l.3.9zm-.2-.6v.6h.3V11zm.6 0h.3a.5.5 0 0 1 .5.5c0 .3-.2.4-.5.4h-.3zm.3.9a.4.4 0 0 0 .4-.4.5.5 0 0 0-.4-.5H10v.9zm.7-.1h.2c.2 0 .3-.1.3-.2s-.5-.2-.5-.5.1-.2.3-.2c-.2 0-.3.1-.3.2s.5.2.5.5a.3.3 0 0 1-.3.3l-.3-.2z"/></svg>